HIERARCHY
ROOT reference
{
  OFFSET 0 0 0
  CHANNELS 6 Xposition Yposition Zposition Zrotation Xrotation Yrotation
  JOINT Hips
  {
    OFFSET 368.823 89.7904 194.012
    CHANNELS 3 Zrotation Xrotation Yrotation
    JOINT RightUpLeg
    {
      OFFSET -9.24587 -1.53924 -0.0496539
      CHANNELS 3 Zrotation Xrotation Yrotation
      JOINT RightLeg
      {
        OFFSET 0.0288962 -41.8853 0.065208
        CHANNELS 3 Zrotation Xrotation Yrotation
        JOINT RightFoot
        {
          OFFSET -0.153961 -42.496 -0.469978
          CHANNELS 3 Zrotation Xrotation Yrotation
          End Site
          {
            OFFSET 0 -7.69 17.5
          }
        }
      }
    }
    JOINT LeftUpLeg
    {
      OFFSET 9.30368 -1.65799 0.0114032
      CHANNELS 3 Zrotation Xrotation Yrotation
      JOINT LeftLeg
      {
        OFFSET 0.0812002 -41.8405 -0.136291
        CHANNELS 3 Zrotation Xrotation Yrotation
        JOINT LeftFoot
        {
          OFFSET 0.408244 -41.1613 0.400562
          CHANNELS 3 Zrotation Xrotation Yrotation
          End Site
          {
            OFFSET 0 -7.69 17.5
          }
        }
      }
    }
    JOINT Spine
    {
      OFFSET 0.0091145 14.2923 0.0603898
      CHANNELS 3 Zrotation Xrotation Yrotation
      JOINT Spine1
      {
        OFFSET 0.0313032 9.72692 0.0269052
        CHANNELS 3 Zrotation Xrotation Yrotation
        JOINT Spine2
        {
          OFFSET 0.0416827 10.1254 -0.000588186
          CHANNELS 3 Zrotation Xrotation Yrotation
          JOINT Spine3
          {
            OFFSET 0.0353017 9.71596 0.00525809
            CHANNELS 3 Zrotation Xrotation Yrotation
            JOINT Neck
            {
              OFFSET 0.0870676 10.3793 0.0454457
              CHANNELS 3 Zrotation Xrotation Yrotation
              JOINT Head
              {
                OFFSET 0.0878806 9.48152 0.0233162
                CHANNELS 3 Zrotation Xrotation Yrotation
                End Site
                {
                  OFFSET 0 15.95 0
                }
              }
            }
            JOINT RightShoulder
            {
              OFFSET -3.16008 6.92912 0.0289115
              CHANNELS 3 Zrotation Xrotation Yrotation
              JOINT RightArm
              {
                OFFSET -12.7589 0.0216905 0.0632467
                CHANNELS 3 Zrotation Xrotation Yrotation
                JOINT RightForeArm
                {
                  OFFSET -26.506 -0.0577999 0.0567862
                  CHANNELS 3 Zrotation Xrotation Yrotation
                  JOINT RightHand
                  {
                    OFFSET -25.9836 -0.0526551 -0.00138994
                    CHANNELS 3 Zrotation Xrotation Yrotation
                    JOINT RightHandThumb1
                    {
                      OFFSET -2.48905 0.190105 3.12053
                      CHANNELS 3 Zrotation Xrotation Yrotation
                      JOINT RightHandThumb2
                      {
                        OFFSET -3.68274 0 0
                        CHANNELS 3 Zrotation Xrotation Yrotation
                        JOINT RightHandThumb3
                        {
                          OFFSET -2.55832 0 0
                          CHANNELS 3 Zrotation Xrotation Yrotation
                          End Site
                          {
                            OFFSET -2.194 0 0
                          }
                        }
                      }
                    }
                    JOINT RightInHandIndex
                    {
                      OFFSET -3.22368 0.508421 1.97842
                      CHANNELS 3 Zrotation Xrotation Yrotation
                      JOINT RightHandIndex1
                      {
                        OFFSET -5.21684 -0.091368 0.999158
                        CHANNELS 3 Zrotation Xrotation Yrotation
                        JOINT RightHandIndex2
                        {
                          OFFSET -3.61937 0 0
                          CHANNELS 3 Zrotation Xrotation Yrotation
                          JOINT RightHandIndex3
                          {
                            OFFSET -2.0521 0 0
                            CHANNELS 3 Zrotation Xrotation Yrotation
                            End Site
                            {
                              OFFSET -1.805 0 0
                            }
                          }
                        }
                      }
                    }
                    JOINT RightInHandMiddle
                    {
                      OFFSET -3.38211 0.517263 0.756737
                      CHANNELS 3 Zrotation Xrotation Yrotation
                      JOINT RightHandMiddle1
                      {
                        OFFSET -5.17411 -0.084 0.313895
                        CHANNELS 3 Zrotation Xrotation Yrotation
                        JOINT RightHandMiddle2
                        {
                          OFFSET -3.94947 0 0
                          CHANNELS 3 Zrotation Xrotation Yrotation
                          JOINT RightHandMiddle3
                          {
                            OFFSET -2.47579 0 0
                            CHANNELS 3 Zrotation Xrotation Yrotation
                            End Site
                            {
                              OFFSET -1.975 0 0
                            }
                          }
                        }
                      }
                    }
                    JOINT RightInHandRing
                    {
                      OFFSET -3.36516 0.537895 -0.128947
                      CHANNELS 3 Zrotation Xrotation Yrotation
                      JOINT RightHandRing1
                      {
                        OFFSET -4.63474 -0.022105 -0.478947
                        CHANNELS 3 Zrotation Xrotation Yrotation
                        JOINT RightHandRing2
                        {
                          OFFSET -3.44238 0 0
                          CHANNELS 3 Zrotation Xrotation Yrotation
                          JOINT RightHandRing3
                          {
                            OFFSET -2.3881 0 0
                            CHANNELS 3 Zrotation Xrotation Yrotation
                            End Site
                            {
                              OFFSET -1.857 0 0
                            }
                          }
                        }
                      }
                    }
                    JOINT RightInHandPinky
                    {
                      OFFSET -3.16105 0.469368 -1.20179
                      CHANNELS 3 Zrotation Xrotation Yrotation
                      JOINT RightHandPinky1
                      {
                        OFFSET -4.14105 -0.022105 -1.09053
                        CHANNELS 3 Zrotation Xrotation Yrotation
                        JOINT RightHandPinky2
                        {
                          OFFSET -2.75653 0 0
                          CHANNELS 3 Zrotation Xrotation Yrotation
                          JOINT RightHandPinky3
                          {
                            OFFSET -1.74189 0 0
                            CHANNELS 3 Zrotation Xrotation Yrotation
                            End Site
                            {
                              OFFSET -1.645 0 0
                            }
                          }
                        }
                      }
                    }
                  }
                }
              }
            }
            JOINT LeftShoulder
            {
              OFFSET 3.24363 6.91883 -0.0263005
              CHANNELS 3 Zrotation Xrotation Yrotation
              JOINT LeftArm
              {
                OFFSET 12.8387 -0.0254922 -0.065819
                CHANNELS 3 Zrotation Xrotation Yrotation
                JOINT LeftForeArm
                {
                  OFFSET 26.503 -0.0679028 -0.0690065
                  CHANNELS 3 Zrotation Xrotation Yrotation
                  JOINT LeftHand
                  {
                    OFFSET 25.9897 -0.0384179 -0.0536179
                    CHANNELS 3 Zrotation Xrotation Yrotation
                    JOINT LeftHandThumb1
                    {
                      OFFSET 2.48905 0.190105 3.12053
                      CHANNELS 3 Zrotation Xrotation Yrotation
                      JOINT LeftHandThumb2
                      {
                        OFFSET 3.68274 0 0
                        CHANNELS 3 Zrotation Xrotation Yrotation
                        JOINT LeftHandThumb3
                        {
                          OFFSET 2.55832 0 0
                          CHANNELS 3 Zrotation Xrotation Yrotation
                          End Site
                          {
                            OFFSET 2.194 0 0
                          }
                        }
                      }
                    }
                    JOINT LeftInHandIndex
                    {
                      OFFSET 3.22368 0.508421 1.97842
                      CHANNELS 3 Zrotation Xrotation Yrotation
                      JOINT LeftHandIndex1
                      {
                        OFFSET 5.21684 -0.091368 0.999158
                        CHANNELS 3 Zrotation Xrotation Yrotation
                        JOINT LeftHandIndex2
                        {
                          OFFSET 3.61937 0 0
                          CHANNELS 3 Zrotation Xrotation Yrotation
                          JOINT LeftHandIndex3
                          {
                            OFFSET 2.0521 0 0
                            CHANNELS 3 Zrotation Xrotation Yrotation
                            End Site
                            {
                              OFFSET 1.805 0 0
                            }
                          }
                        }
                      }
                    }
                    JOINT LeftInHandMiddle
                    {
                      OFFSET 3.38211 0.517263 0.756737
                      CHANNELS 3 Zrotation Xrotation Yrotation
                      JOINT LeftHandMiddle1
                      {
                        OFFSET 5.17411 -0.084 0.313895
                        CHANNELS 3 Zrotation Xrotation Yrotation
                        JOINT LeftHandMiddle2
                        {
                          OFFSET 3.94947 0 0
                          CHANNELS 3 Zrotation Xrotation Yrotation
                          JOINT LeftHandMiddle3
                          {
                            OFFSET 2.47579 0 0
                            CHANNELS 3 Zrotation Xrotation Yrotation
                            End Site
                            {
                              OFFSET 1.975 0 0
                            }
                          }
                        }
                      }
                    }
                    JOINT LeftInHandRing
                    {
                      OFFSET 3.36516 0.537895 -0.128947
                      CHANNELS 3 Zrotation Xrotation Yrotation
                      JOINT LeftHandRing1
                      {
                        OFFSET 4.63474 -0.022105 -0.478947
                        CHANNELS 3 Zrotation Xrotation Yrotation
                        JOINT LeftHandRing2
                        {
                          OFFSET 3.44238 0 0
                          CHANNELS 3 Zrotation Xrotation Yrotation
                          JOINT LeftHandRing3
                          {
                            OFFSET 2.3881 0 0
                            CHANNELS 3 Zrotation Xrotation Yrotation
                            End Site
                            {
                              OFFSET 1.857 0 0
                            }
                          }
                        }
                      }
                    }
                    JOINT LeftInHandPinky
                    {
                      OFFSET 3.16105 0.469368 -1.20179
                      CHANNELS 3 Zrotation Xrotation Yrotation
                      JOINT LeftHandPinky1
                      {
                        OFFSET 4.14105 -0.022105 -1.09053
                        CHANNELS 3 Zrotation Xrotation Yrotation
                        JOINT LeftHandPinky2
                        {
                          OFFSET 2.75653 0 0
                          CHANNELS 3 Zrotation Xrotation Yrotation
                          JOINT LeftHandPinky3
                          {
                            OFFSET 1.74189 0 0
                            CHANNELS 3 Zrotation Xrotation Yrotation
                            End Site
                            {
                              OFFSET 1.645 0 0
                            }
                          }
                        }
                      }
                    }
                  }
                }
              }
            }
          }
        }
      }
    }
  }
}
MOTION
Frames: 2
Frame Time: 0.00833333
7.500000000000000000e+02 0.000000000000000000e+00 0.000000000000000000e+00 0.000000000000000000e+00 0.000000000000000000e+00 0.000000000000000000e+00 5.966003996619069660e+00 1.385278350953730531e+01 2.612160386697706116e+01 -2.051900635888694069e+01 -2.088514229429731373e+01 -2.949039084079106487e+01 4.158904211867243461e+00 1.240442169657184124e+01 -9.038856538079746983e+00 7.205773822690297870e-01 -3.697816119490241249e+00 -1.227945310465489648e+01 -3.877677370580777438e+00 -2.371038636113591025e+01 -1.192193450098116791e+01 1.430470147553514337e+01 -4.180127028298977088e+00 -1.512627013617028737e+01 -5.723390309506077855e+00 9.779290249928774159e+00 -9.218403901957172408e+00 1.357273709341415557e+00 6.280453071256896891e+00 -3.864877632056925805e+00 2.984374878576811496e-01 2.230285966837219469e+00 -1.130207776092503114e+00 5.535753242974981170e-01 3.859627188110476226e+00 -1.361184184796346841e+00 1.869750431125476731e-01 9.999330988390446595e-03 -7.574278205618192317e-01 -6.360937905395075420e-01 2.104178065680571752e+00 -5.569360677742441368e+00 2.780828531813669180e+00 -7.452237865604612210e+00 -9.939837847251030922e+00 3.607068326990971130e+00 -5.810521900366421022e+00 4.929566800053933884e-01 2.945538418736428099e+01 2.539012747947622373e+01 1.341042416435690221e+01 -2.651346324269286292e+00 -2.795539321418624468e+01 -4.900195924188275143e+01 -1.931797784511450899e+00 -2.614399232922555161e+00 2.255541215730556104e+00 0.000000000000000000e+00 0.000000000000000000e+00 0.000000000000000000e+00 -1.689319152808504884e-14 -2.040426160638357493e-15 0.000000000000000000e+00 -1.790668266049035005e-14 3.153480345333422765e-15 0.000000000000000000e+00 3.314247696863692749e-15 5.593338930834575871e-15 1.149844407504180331e-14 0.000000000000000000e+00 0.000000000000000000e+00 0.000000000000000000e+00 0.000000000000000000e+00 9.508795561860075071e-15 1.894249428632088832e-14 0.000000000000000000e+00 1.044935120581438515e-14 3.476149086533103502e-14 3.314247696863692749e-15 5.593338930834575871e-15 1.149844407504180331e-14 0.000000000000000000e+00 7.129351260957709821e-16 1.963397048739608427e-14 0.000000000000000000e+00 1.223786484373791440e-14 1.487821659571774236e-14 0.000000000000000000e+00 1.529205419968261256e-14 4.122859892828505074e-14 3.314247696863692749e-15 5.593338930834575871e-15 1.149844407504180331e-14 0.000000000000000000e+00 0.000000000000000000e+00 0.000000000000000000e+00 0.000000000000000000e+00 1.510303364798618773e-14 2.462429838661061583e-14 0.000000000000000000e+00 6.141590740370660828e-15 1.736520917769596189e-14 3.314247696863692749e-15 5.593338930834575871e-15 1.149844407504180331e-14 0.000000000000000000e+00 0.000000000000000000e+00 0.000000000000000000e+00 0.000000000000000000e+00 -1.316600169228603948e-14 -4.215637683268997573e-14 0.000000000000000000e+00 5.578618349918320768e-15 1.832972780561008940e-14 5.024012480466686803e+00 2.257655442885500907e+00 9.572877335409547328e+00 4.746013795273100300e+00 8.874569718946439423e+00 1.654623449701712801e+01 1.031329803356935315e+01 -1.465682528351299752e+01 6.461036270198391662e+01 -4.222259396879164406e+00 -7.474390754731940589e+00 9.560417413437420464e+00 0.000000000000000000e+00 0.000000000000000000e+00 0.000000000000000000e+00 8.425079160225485813e-15 8.416648521042823113e-15 0.000000000000000000e+00 -7.010894146935131672e-15 -2.187194421542540134e-15 0.000000000000000000e+00 -6.703429666594800065e-15 -1.189246952499796379e-15 3.438315619020548453e-16 0.000000000000000000e+00 0.000000000000000000e+00 0.000000000000000000e+00 0.000000000000000000e+00 6.350717573597886144e-15 -1.215978252984737601e-14 0.000000000000000000e+00 2.798757507289814914e-15 -2.368407111391201221e-14 -6.703429666594800065e-15 -1.189246952499796379e-15 3.438315619020548453e-16 0.000000000000000000e+00 3.004157418862575342e-15 -8.795342278642031405e-15 0.000000000000000000e+00 2.232937722211940704e-15 -1.199144504942120619e-14 0.000000000000000000e+00 2.644125803760687093e-15 -1.563483331908636918e-14 -6.703429666594800065e-15 -1.189246952499796379e-15 3.438315619020548453e-16 0.000000000000000000e+00 0.000000000000000000e+00 0.000000000000000000e+00 0.000000000000000000e+00 -2.580182896705244648e-15 -1.332132060037624482e-14 0.000000000000000000e+00 -1.128810860745853528e-15 -1.637756617436319036e-15 -6.703429666594800065e-15 -1.189246952499796379e-15 3.438315619020548453e-16 0.000000000000000000e+00 0.000000000000000000e+00 0.000000000000000000e+00 0.000000000000000000e+00 -1.065437479204073734e-15 -1.364593604684357834e-14 0.000000000000000000e+00 -2.192388890322685838e-15 -1.334434007092515181e-14
7.500000000000000000e+02 0.000000000000000000e+00 0.000000000000000000e+00 0.000000000000000000e+00 0.000000000000000000e+00 0.000000000000000000e+00 6.005988792731123738e+00 1.388737484103840814e+01 2.600863592976869398e+01 -2.040555983772328119e+01 -2.108021330920275460e+01 -2.944974516492128913e+01 4.142857451541210878e+00 1.247089759370271267e+01 -9.017407827585934399e+00 7.264779023272447400e-01 -3.670146169037895589e+00 -1.227187866252436166e+01 -3.829137155816447979e+00 -2.386290942751740829e+01 -1.193709597916584819e+01 1.430414627374197423e+01 -4.083640726318290781e+00 -1.507556936785268675e+01 -5.687328725541613395e+00 9.763451957273103332e+00 -9.151498735344620883e+00 1.401186304838754282e+00 6.284403154347546483e+00 -4.036763127383349747e+00 3.066476799980325518e-01 2.236513075923645122e+00 -1.174441013359352359e+00 5.682648441772382153e-01 3.872305143398476091e+00 -1.428630345933262547e+00 1.823560142907116877e-01 8.517614349350610681e-03 -7.434708594056356201e-01 -6.428229039092530073e-01 2.140057860580140581e+00 -5.615950470729860200e+00 2.698921404338874730e+00 -7.538958852405174049e+00 -9.641240929324041531e+00 3.662223977447669032e+00 -5.789029538199075731e+00 3.131115202978330680e-01 2.987496132361308199e+01 2.526501373033863729e+01 1.324158995686478768e+01 -2.276206437694000329e+00 -2.781844716105508653e+01 -4.854251888922832592e+01 -2.046159809203296653e+00 -2.678630242406942141e+00 2.430385202789164367e+00 0.000000000000000000e+00 0.000000000000000000e+00 0.000000000000000000e+00 -1.669721376612680252e-14 -1.834545357715525328e-15 0.000000000000000000e+00 -1.734305003838214889e-14 3.211244272055668290e-15 0.000000000000000000e+00 3.164832969963022591e-15 5.606436921899208076e-15 1.122753496636858643e-14 0.000000000000000000e+00 0.000000000000000000e+00 0.000000000000000000e+00 0.000000000000000000e+00 9.369659962099955709e-15 1.884158599260797581e-14 0.000000000000000000e+00 1.007664821911603293e-14 3.347119986813852341e-14 3.164832969963022591e-15 5.606436921899208076e-15 1.122753496636858643e-14 0.000000000000000000e+00 6.903896501129028838e-16 1.931965664494926467e-14 0.000000000000000000e+00 1.212465139369866276e-14 1.492455879189327160e-14 0.000000000000000000e+00 1.488205120149162739e-14 3.982229589264441577e-14 3.164832969963022591e-15 5.606436921899208076e-15 1.122753496636858643e-14 0.000000000000000000e+00 0.000000000000000000e+00 0.000000000000000000e+00 0.000000000000000000e+00 1.489908846257005989e-14 2.452396259317643103e-14 0.000000000000000000e+00 5.955045524316936800e-15 1.669277957566148662e-14 3.164832969963022591e-15 5.606436921899208076e-15 1.122753496636858643e-14 0.000000000000000000e+00 0.000000000000000000e+00 0.000000000000000000e+00 0.000000000000000000e+00 -1.271273176943620019e-14 -4.055963226171978572e-14 0.000000000000000000e+00 5.448216094394228111e-15 1.799471877387790934e-14 5.131513857301256643e+00 2.237804257547314712e+00 9.386580604263755845e+00 4.876655961347326596e+00 8.928036265977999264e+00 1.650065338389067549e+01 1.062114128661598933e+01 -1.427631715551018132e+01 6.524418254441768283e+01 -4.304527409286119877e+00 -7.422467373493240039e+00 9.578934354669028650e+00 0.000000000000000000e+00 0.000000000000000000e+00 0.000000000000000000e+00 8.563065209070886530e-15 8.281480904024502154e-15 0.000000000000000000e+00 -6.882818337093608831e-15 -2.123112702265087287e-15 0.000000000000000000e+00 -6.586924088197766212e-15 -9.630830403720407138e-16 2.743997029905097036e-16 0.000000000000000000e+00 0.000000000000000000e+00 0.000000000000000000e+00 0.000000000000000000e+00 6.238715629232780441e-15 -1.188824523741452803e-14 0.000000000000000000e+00 2.696074141643394175e-15 -2.290608454594227308e-14 -6.586924088197766212e-15 -9.630830403720407138e-16 2.743997029905097036e-16 0.000000000000000000e+00 2.913950081183610781e-15 -8.741194687436503693e-15 0.000000000000000000e+00 2.173875012214888556e-15 -1.178331539987087213e-14 0.000000000000000000e+00 2.480462371477786590e-15 -1.517442263719431096e-14 -6.586924088197766212e-15 -9.630830403720407138e-16 2.743997029905097036e-16 0.000000000000000000e+00 0.000000000000000000e+00 0.000000000000000000e+00 0.000000000000000000e+00 -2.425085297643654516e-15 -1.290524103652686360e-14 0.000000000000000000e+00 -1.073120262540547967e-15 -1.417562876858973185e-15 -6.586924088197766212e-15 -9.630830403720407138e-16 2.743997029905097036e-16 0.000000000000000000e+00 0.000000000000000000e+00 0.000000000000000000e+00 0.000000000000000000e+00 -9.935329092133962850e-16 -1.349537547972751209e-14 0.000000000000000000e+00 -2.262136303472459986e-15 -1.287938210137315151e-14
